<?xml version="1.0" encoding="utf-8"?>
<!-- Generator: Adobe Illustrator 22.0.1, SVG Export Plug-In . SVG Version: 6.00 Build 0)  -->
<svg version="1.1" id="Layer_1" xmlns="http://www.w3.org/2000/svg" xmlns:xlink="http://www.w3.org/1999/xlink" x="0px" y="0px"
	 viewBox="0 0 32 32" style="enable-background:new 0 0 32 32;" xml:space="preserve">
<style type="text/css">
	.st0{fill:#1E3D54;}
</style>
<title>about3</title>
<path class="st0" d="M27.2,21.4l-2.1-2.3v-4.3c0-0.1,0-0.1,0-0.2c0-0.3,0-0.6-0.1-0.9c0-0.2,0-0.4-0.1-0.5c0-0.2-0.1-0.3-0.1-0.5
	c-0.7-2.8-2.6-5.1-5.2-6.3V5.8c0-2-1.5-3.6-3.4-3.8c-2-0.1-3.8,1.4-3.9,3.4c0,0.1,0,0.2,0,0.2v0.8C9,7.9,6.8,11.2,6.8,14.9v4.2
	l-2.1,2.3c-1,1.1-0.9,2.8,0.2,3.8c0.5,0.4,1.1,0.7,1.8,0.7v0h4.6c0.3,2.6,2.7,4.4,5.2,4.1c2.1-0.3,3.8-1.9,4.1-4.1h4.6
	c1.5,0,2.7-1.2,2.7-2.7C27.9,22.6,27.7,21.9,27.2,21.4z M16,3.8h0.1c1,0.1,1.7,0.9,1.7,1.9V6c-0.6-0.1-1.2-0.2-1.8-0.2
	c-0.6,0-1.3,0.1-1.9,0.2V5.7C14.2,4.6,15,3.8,16,3.8z M16,28.2c-1.4,0-2.5-0.9-2.8-2.3h5.6C18.5,27.2,17.4,28.2,16,28.2z"/>
</svg>
