<?xml version="1.0" encoding="utf-8"?>
<!-- Generator: Adobe Illustrator 21.1.0, SVG Export Plug-In . SVG Version: 6.00 Build 0)  -->
<svg version="1.1" id="Layer_1" xmlns="http://www.w3.org/2000/svg" xmlns:xlink="http://www.w3.org/1999/xlink" x="0px" y="0px"
	 viewBox="0 0 32 32" style="enable-background:new 0 0 32 32;" xml:space="preserve">
<style type="text/css">
	.st0{fill:#1E3D54;}
	.st1{fill:none;stroke:#1E3D54;stroke-width:2;stroke-linecap:round;stroke-miterlimit:10;}
</style>
<title>about3</title>
<polygon points="10.1,56.8 9.2,55.7 8.2,54.7 3.4,59.5 2.1,60.8 8.2,66.7 9.2,65.7 10.1,64.7 7.6,62.2 6.2,60.8 7.6,59.4 "/>
<polygon points="23.2,55.7 22.3,56.8 24.8,59.4 26.2,60.8 24.8,62.2 22.3,64.7 23.2,65.7 24.2,66.7 29,61.9 30.3,60.8 24.2,54.7 "/>
<rect x="5.9" y="59.4" transform="matrix(0.2743 -0.9616 0.9616 0.2743 -46.7017 59.6936)" width="20.6" height="2.8"/>
<g transform="translate(0,-952.36218)">
	<path class="st0" d="M2.6,1043.1c-2.5,2.5-2.5,6.6,0,9c2.5,2.5,6.6,2.5,9,0l5.3-5.3c2.4-2.4,2.5-6.2,0.3-8.7
		c-0.4-0.5-1.1-0.5-1.6-0.1s-0.5,1.1-0.1,1.6c0,0,0,0,0,0c1.4,1.6,1.4,4.1-0.2,5.6l-5.3,5.3c-1.6,1.6-4.2,1.6-5.9,0
		c-1.6-1.6-1.6-4.2,0-5.9l5.3-5.3c0.4-0.4,0.5-1.1,0-1.6c-0.4-0.4-1.1-0.5-1.6,0c0,0,0,0,0,0L2.6,1043.1L2.6,1043.1z M12.7,1033
		c-2.4,2.4-2.5,6.2-0.3,8.7c0.4,0.5,1.1,0.5,1.6,0.1c0.5-0.4,0.5-1.1,0.1-1.6c0,0,0,0,0,0c-1.4-1.6-1.4-4.1,0.2-5.6l5.3-5.3
		c1.6-1.6,4.2-1.6,5.9,0c1.6,1.6,1.6,4.2,0,5.8l-5.3,5.3c-0.4,0.4-0.5,1.1,0,1.6c0.4,0.4,1.1,0.5,1.6,0c0,0,0,0,0,0l5.3-5.3
		c2.5-2.5,2.5-6.6,0-9c-2.5-2.5-6.6-2.5-9,0L12.7,1033z"/>
</g>
<polyline class="st1" points="23.4,55.8 28.3,60.9 23.3,65.8 "/>
<polyline class="st1" points="9,65.8 4,60.7 9.1,55.8 "/>
<line class="st1" x1="18.9" y1="50.9" x2="13.3" y2="70.7"/>
<g>
	<path class="st0" d="M23,22.5c-0.3,0-0.5-0.1-0.7-0.3c-0.4-0.4-0.4-1,0-1.4l4.9-4.8l-4.8-4.9c-0.4-0.4-0.4-1,0-1.4
		c0.4-0.4,1-0.4,1.4,0l6.2,6.3l-6.3,6.2C23.5,22.5,23.2,22.5,23,22.5z"/>
</g>
<g>
	<path class="st0" d="M8.9,22.5c-0.3,0-0.5-0.1-0.7-0.3L2,15.9l6.3-6.2c0.4-0.4,1-0.4,1.4,0c0.4,0.4,0.4,1,0,1.4l-4.9,4.8l4.8,4.9
		c0.4,0.4,0.4,1,0,1.4C9.4,22.5,9.1,22.5,8.9,22.5z"/>
</g>
<g>
	<path class="st0" d="M12.9,28c-0.1,0-0.2,0-0.3,0c-0.5-0.2-0.8-0.7-0.7-1.2l6.2-22c0.2-0.5,0.7-0.8,1.2-0.7
		c0.5,0.1,0.8,0.7,0.7,1.2l-6.2,22C13.7,27.7,13.3,28,12.9,28z"/>
</g>
</svg>
