<?xml version="1.0" encoding="utf-8"?>
<!-- Generator: Adobe Illustrator 23.0.2, SVG Export Plug-In . SVG Version: 6.00 Build 0)  -->
<svg version="1.1" id="Layer_1" xmlns="http://www.w3.org/2000/svg" xmlns:xlink="http://www.w3.org/1999/xlink" x="0px" y="0px"
	 viewBox="0 0 32 32" style="enable-background:new 0 0 32 32;" xml:space="preserve">
<style type="text/css">
	.st0{fill:#1E3D54;}
</style>
<title>about3</title>
<g>
	<path class="st0" d="M23,22.5c-0.3,0-0.5-0.1-0.7-0.3c-0.4-0.4-0.4-1,0-1.4l4.9-4.8l-4.8-4.9c-0.4-0.4-0.4-1,0-1.4s1-0.4,1.4,0
		L30,16l-6.3,6.2C23.5,22.5,23.2,22.5,23,22.5z"/>
</g>
<g>
	<path class="st0" d="M8.9,22.5c-0.3,0-0.5-0.1-0.7-0.3L2,15.9l6.3-6.2c0.4-0.4,1-0.4,1.4,0s0.4,1,0,1.4l-4.9,4.8l4.8,4.9
		c0.4,0.4,0.4,1,0,1.4C9.4,22.5,9.1,22.5,8.9,22.5z"/>
</g>
<g>
	<path class="st0" d="M12.9,28c-0.1,0-0.2,0-0.3,0c-0.5-0.2-0.8-0.7-0.7-1.2l6.2-22c0.2-0.5,0.7-0.8,1.2-0.7s0.8,0.7,0.7,1.2
		l-6.2,22C13.7,27.7,13.3,28,12.9,28z"/>
</g>
</svg>
