<?xml version="1.0" encoding="utf-8"?>
<!-- Generator: Adobe Illustrator 21.1.0, SVG Export Plug-In . SVG Version: 6.00 Build 0)  -->
<svg version="1.1" id="Layer_1" xmlns="http://www.w3.org/2000/svg" xmlns:xlink="http://www.w3.org/1999/xlink" x="0px" y="0px"
	 viewBox="0 0 32 32" style="enable-background:new 0 0 32 32;" xml:space="preserve">
<style type="text/css">
	.st0{fill:#1E3D54;}
</style>
<title>about3</title>
<g>
	<path class="st0" d="M26.3,5c1,0,1.8,0.9,2,1.8v11.8c0,0.9-0.8,1.7-1.7,1.7h-2.4h-0.7l-0.6,0.5L16,26.5v-4.1v-2h-2H5.8
		c-0.9,0-1.7-0.8-1.7-1.7v-12C4.1,5.8,4.9,5,5.8,5H26.3 M26.3,3H5.8c-2,0-3.7,1.7-3.7,3.7v12c0,2,1.7,3.7,3.7,3.7H14v5.3
		c0,0.5,0.3,1,0.9,1.3c0.2,0.1,0.4,0.2,0.6,0.2c0.3,0,0.7-0.2,1-0.5l7.7-6.4h2.4c2,0,3.7-1.7,3.7-3.7v-12C29.9,4.6,28.3,3,26.3,3
		L26.3,3z"/>
</g>
</svg>
