<?xml version="1.0" encoding="utf-8"?>
<!-- Generator: Adobe Illustrator 21.1.0, SVG Export Plug-In . SVG Version: 6.00 Build 0)  -->
<svg version="1.1" id="Layer_1" xmlns="http://www.w3.org/2000/svg" xmlns:xlink="http://www.w3.org/1999/xlink" x="0px" y="0px"
	 viewBox="0 0 32 32" style="enable-background:new 0 0 32 32;" xml:space="preserve">
<style type="text/css">
	.st0{fill:#FFFFFF;}
</style>
<title>about3</title>
<path class="st0" d="M17.3,16l7.3-7.3c0.4-0.4,0.4-1,0-1.4s-1-0.4-1.4,0l-7.3,7.3L8.6,7.3c-0.4-0.4-1-0.4-1.4,0s-0.4,1,0,1.4
	l7.3,7.3l-7.3,7.3c-0.4,0.4-0.4,1,0,1.4C7.4,24.9,7.6,25,7.9,25s0.5-0.1,0.7-0.3l7.3-7.3l7.3,7.3c0.2,0.2,0.5,0.3,0.7,0.3
	s0.5-0.1,0.7-0.3c0.4-0.4,0.4-1,0-1.4L17.3,16z"/>
</svg>
