<?xml version="1.0" encoding="utf-8"?>
<!-- Generator: Adobe Illustrator 21.1.0, SVG Export Plug-In . SVG Version: 6.00 Build 0)  -->
<svg version="1.1" id="Layer_1" xmlns="http://www.w3.org/2000/svg" xmlns:xlink="http://www.w3.org/1999/xlink" x="0px" y="0px"
	 viewBox="0 0 32 32" style="enable-background:new 0 0 32 32;" xml:space="preserve">
<style type="text/css">
	.st0{fill:#1E3D54;}
</style>
<title>about3</title>
<path class="st0" d="M22.6,11.5l3.5-5.1c0.2-0.3,0.2-0.7,0.1-1c-0.2-0.3-0.5-0.5-0.9-0.5h-8.8V3.1c0-0.6-0.4-1-1-1H6.7
	c-0.6,0-1,0.4-1,1v3.6v7.8V29c0,0.6,0.4,1,1,1s1-0.4,1-1V15.5h3.5v1.7c0,0.6,0.4,1,1,1h13c0.4,0,0.7-0.2,0.9-0.5
	c0.2-0.3,0.2-0.7-0.1-1L22.6,11.5z M7.7,6.7V4.1h6.7v9.4H7.7V6.7z M15,16.2l1.2-1l0,0c0.2-0.2,0.4-0.4,0.4-0.8V6.9h6.9L20.5,11
	c-0.2,0.3-0.2,0.8,0,1.1l2.8,4.1H15z"/>
</svg>
