<?xml version="1.0" encoding="utf-8"?>
<!-- Generator: Adobe Illustrator 21.1.0, SVG Export Plug-In . SVG Version: 6.00 Build 0)  -->
<svg version="1.1" id="Layer_1" xmlns="http://www.w3.org/2000/svg" xmlns:xlink="http://www.w3.org/1999/xlink" x="0px" y="0px"
	 viewBox="0 0 32 32" style="enable-background:new 0 0 32 32;" xml:space="preserve">
<style type="text/css">
	.st0{fill:#1E3D54;}
</style>
<title>about3</title>
<path class="st0" d="M16.1,2L16.1,2C8.3,2,2,8.3,2,16s6.3,14,14,14h0.1h0C23.8,29.9,30,23.7,30,16C30,8.3,23.8,2.1,16.1,2z
	 M20.6,24.7c-1,1.9-2.3,3.1-3.7,3.5v-3.9C18.2,24.3,19.5,24.5,20.6,24.7z M23.7,25.5c-0.8,0.6-1.7,1.2-2.7,1.6
	c0.5-0.6,0.9-1.3,1.3-2.1C22.9,25.2,23.3,25.4,23.7,25.5z M16.9,22.6v-5.8h5.6c-0.1,2.3-0.5,4.5-1.2,6.3
	C20,22.8,18.5,22.6,16.9,22.6z M26.1,15.1c-0.6,0-1.3,0-1.9,0c-0.1-2.3-0.5-4.6-1.2-6.6c0.7-0.2,1.4-0.5,2.1-0.7
	c1.9,2.1,3,4.7,3.2,7.4C27.5,15.1,26.8,15.1,26.1,15.1z M22.6,15.1h-5.6V9.4c1.5,0,3-0.2,4.4-0.5C22.1,10.7,22.5,12.8,22.6,15.1z
	 M22.4,6.9c-0.4-0.8-0.8-1.5-1.3-2.1c0.9,0.4,1.8,1,2.7,1.6C23.3,6.6,22.9,6.7,22.4,6.9z M16.9,7.7V3.8c1.4,0.4,2.7,1.6,3.7,3.5
	C19.5,7.5,18.2,7.6,16.9,7.7z M28.3,16.8c-0.2,2.8-1.3,5.4-3.2,7.4c-0.6-0.3-1.3-0.5-2.1-0.7c0.7-2,1.2-4.2,1.2-6.7H28.3z M9.5,16.8
	c1.7,0,3.7,0,5.7,0v5.8c-1.6,0-3.1,0.2-4.6,0.5C10,21.2,9.6,19.1,9.5,16.8z M9.7,25.1c0.4,0.8,0.9,1.5,1.3,2.1
	c-0.9-0.4-1.9-1-2.7-1.7C8.7,25.4,9.2,25.2,9.7,25.1z M15.2,24.3v3.9c-1.4-0.3-2.8-1.5-3.8-3.5C12.7,24.5,14,24.3,15.2,24.3z
	 M7.8,16.8c0.1,2.5,0.5,4.7,1.2,6.7c-0.8,0.2-1.5,0.5-2.1,0.7c-1.9-2.1-3-4.7-3.2-7.4C4.6,16.8,6,16.8,7.8,16.8z M3.8,15.1
	C4,12.4,5.1,9.8,6.9,7.7C7.7,8.1,8.3,8.3,9,8.5c-0.7,2-1.1,4.3-1.2,6.6c-1.6,0-2.6,0-3.4,0C4.2,15.1,3.9,15.1,3.8,15.1z M15.2,9.4
	v5.7H9.5c0.1-2.2,0.5-4.3,1.2-6.2C12.1,9.2,13.6,9.4,15.2,9.4z M8.3,6.5c0.9-0.7,1.8-1.3,2.7-1.7c-0.5,0.6-0.9,1.3-1.3,2.1
	C9.2,6.8,8.7,6.6,8.3,6.5z M15.2,3.8v3.9c-1.3,0-2.6-0.2-3.8-0.4C12.5,5.3,13.8,4.1,15.2,3.8z"/>
</svg>
