<?xml version="1.0" encoding="utf-8"?>
<!-- Generator: Adobe Illustrator 21.1.0, SVG Export Plug-In . SVG Version: 6.00 Build 0)  -->
<svg version="1.1" id="Layer_1" xmlns="http://www.w3.org/2000/svg" xmlns:xlink="http://www.w3.org/1999/xlink" x="0px" y="0px"
	 viewBox="0 0 32 32" style="enable-background:new 0 0 32 32;" xml:space="preserve">
<style type="text/css">
	.st0{fill:#1E3D54;}
</style>
<title>about3</title>
<g transform="translate(0,-952.36218)">
	<g>
		<g>
			<path class="st0" d="M22.6,959.1c1.5,0,2.8,0.5,3.8,1.5c1,1,1.5,2.3,1.5,3.7c0,1.4-0.5,2.7-1.5,3.7l-10.5,10.5L5.4,968
				c-1-1-1.5-2.3-1.5-3.7c0-1.4,0.5-2.7,1.5-3.7c1.1-1,2.4-1.5,3.8-1.5h0.2c1.1,0,2.4,0.6,3.3,1.4l1.7,1.7l1.4,1.4l1.4-1.4l1.6-1.6
				C19.9,959.6,21.1,959.1,22.6,959.1 M22.6,957.1c-2,0-3.7,0.7-5.2,2.1l-1.6,1.6l-1.7-1.7c-1.2-1.2-3-2-4.7-2c-0.1,0-0.1,0-0.2,0
				c-1.8,0-3.7,0.7-5.2,2.1c-2.8,2.8-2.8,7.4,0,10.2l11.4,11.4c0.1,0.1,0.3,0.2,0.5,0.2c0.3,0,0.4-0.1,0.5-0.2
				c3.8-3.8,7.6-7.6,11.4-11.4c2.8-2.8,2.8-7.4,0-10.2C26.4,957.8,24.6,957.1,22.6,957.1L22.6,957.1z"/>
		</g>
	</g>
</g>
</svg>
