<?xml version="1.0" encoding="utf-8"?>
<!-- Generator: Adobe Illustrator 21.1.0, SVG Export Plug-In . SVG Version: 6.00 Build 0)  -->
<svg version="1.1" id="Layer_1" xmlns="http://www.w3.org/2000/svg" xmlns:xlink="http://www.w3.org/1999/xlink" x="0px" y="0px"
	 viewBox="0 0 32 32" style="enable-background:new 0 0 32 32;" xml:space="preserve">
<style type="text/css">
	.st0{fill:#1E3D54;}
</style>
<title>about3</title>
<g transform="translate(0,-952.36218)">
	<g>
		<path class="st0" d="M9.4,957.1c-0.1,0-0.1,0-0.2,0l0,0c-1.8,0-3.7,0.7-5.2,2.1c-2.8,2.8-2.8,7.4,0,10.2l11.4,11.4
			c0.1,0.1,0.3,0.2,0.5,0.2c0.3,0,0.4-0.1,0.5-0.2c3.8-3.8,7.6-7.6,11.4-11.4c2.8-2.8,2.8-7.4,0-10.2c-1.4-1.4-3.2-2.1-5.2-2.1
			s-3.7,0.7-5.2,2.1l-1.6,1.6l-1.7-1.7C12.9,957.9,11.1,957.1,9.4,957.1L9.4,957.1z"/>
	</g>
</g>
</svg>
