<?xml version="1.0" encoding="utf-8"?>
<!-- Generator: Adobe Illustrator 21.1.0, SVG Export Plug-In . SVG Version: 6.00 Build 0)  -->
<svg version="1.1" id="Layer_1" xmlns="http://www.w3.org/2000/svg" xmlns:xlink="http://www.w3.org/1999/xlink" x="0px" y="0px"
	 viewBox="0 0 32 32" style="enable-background:new 0 0 32 32;" xml:space="preserve">
<style type="text/css">
	.st0{fill:#1E3D54;}
</style>
<title>about3</title>
<g transform="translate(0,-952.36218)">
	<path class="st0" d="M4,971.6c-2.5,2.5-2.5,6.6,0,9c2.5,2.5,6.6,2.5,9,0l5.3-5.3c2.4-2.4,2.5-6.2,0.3-8.7c-0.4-0.5-1.1-0.5-1.6-0.1
		c-0.5,0.4-0.5,1.1-0.1,1.6c0,0,0,0,0,0c1.4,1.6,1.4,4.1-0.2,5.6l-5.3,5.3c-1.6,1.6-4.2,1.6-5.9,0c-1.6-1.6-1.6-4.2,0-5.9l5.3-5.3
		c0.4-0.4,0.5-1.1,0-1.6c-0.4-0.4-1.1-0.5-1.6,0c0,0,0,0,0,0L4,971.6L4,971.6z M14.1,961.4c-2.4,2.4-2.5,6.2-0.3,8.7
		c0.4,0.5,1.1,0.5,1.6,0.1c0.5-0.4,0.5-1.1,0.1-1.6c0,0,0,0,0,0c-1.4-1.6-1.4-4.1,0.2-5.6l5.3-5.3c1.6-1.6,4.2-1.6,5.9,0
		c1.6,1.6,1.6,4.2,0,5.9l-5.3,5.3c-0.4,0.4-0.5,1.1,0,1.6c0.4,0.4,1.1,0.5,1.6,0c0,0,0,0,0,0l5.3-5.3c2.5-2.5,2.5-6.6,0-9
		c-2.5-2.5-6.6-2.5-9,0L14.1,961.4z"/>
</g>
</svg>
