<?xml version="1.0" encoding="utf-8"?>
<!-- Generator: Adobe Illustrator 21.1.0, SVG Export Plug-In . SVG Version: 6.00 Build 0)  -->
<svg version="1.1" id="Layer_1" xmlns="http://www.w3.org/2000/svg" xmlns:xlink="http://www.w3.org/1999/xlink" x="0px" y="0px"
	 viewBox="0 0 32 32" style="enable-background:new 0 0 32 32;" xml:space="preserve">
<style type="text/css">
	.st0{fill:#1E3D54;}
</style>
<title>about3</title>
<g>
	<path class="st0" d="M5.9,15c0.6,0,1,0.4,1,1s-0.4,1-1,1s-1-0.4-1-1S5.3,15,5.9,15 M5.9,13c-1.7,0-3,1.3-3,3c0,1.7,1.3,3,3,3
		s3-1.3,3-3C8.9,14.3,7.6,13,5.9,13L5.9,13z"/>
</g>
<g>
	<path class="st0" d="M25.9,15c0.6,0,1,0.4,1,1s-0.4,1-1,1s-1-0.4-1-1S25.3,15,25.9,15 M25.9,13c-1.7,0-3,1.3-3,3c0,1.7,1.3,3,3,3
		s3-1.3,3-3C28.9,14.3,27.6,13,25.9,13L25.9,13z"/>
</g>
<g>
	<path class="st0" d="M15.9,15c0.6,0,1,0.4,1,1s-0.4,1-1,1c-0.6,0-1-0.4-1-1S15.3,15,15.9,15 M15.9,13c-1.7,0-3,1.3-3,3
		c0,1.7,1.3,3,3,3s3-1.3,3-3C18.9,14.3,17.6,13,15.9,13L15.9,13z"/>
</g>
</svg>
