<?xml version="1.0" encoding="utf-8"?>
<!-- Generator: Adobe Illustrator 22.0.1, SVG Export Plug-In . SVG Version: 6.00 Build 0)  -->
<svg version="1.1" id="Layer_1" xmlns="http://www.w3.org/2000/svg" xmlns:xlink="http://www.w3.org/1999/xlink" x="0px" y="0px"
	 viewBox="0 0 32 32" style="enable-background:new 0 0 32 32;" xml:space="preserve">
<style type="text/css">
	.st0{fill:#1E3D54;}
</style>
<title>about3</title>
<g>
	<g>
		<g>
			<path class="st0" d="M12.4,18.1H9.5H5.7H5.5c-2.1,0-3.5,1.5-3.5,3.5c0,0.1,0,0.2,0,0.3c0,1,0,2,0,3c0,0.8,0.2,0.9,0.9,0.9h6.9
				v-0.1c0-1,0-2.8,0-4c0-0.1,0-0.2,0-0.3C9.9,19.7,10.9,18.5,12.4,18.1L12.4,18.1z"/>
		</g>
	</g>
</g>
<g>
	<g>
		<g>
			<path class="st0" d="M20.9,4.3C20.9,4.3,20.7,4.3,20.9,4.3C20.7,4.3,20.9,4.3,20.9,4.3L20.9,4.3z M20.7,4.3
				c-3.3,0-5.9,2.6-5.9,5.9s2.6,5.9,5.9,6c3.3,0,5.9-2.6,5.9-5.9C26.7,7,24.1,4.3,20.7,4.3L20.7,4.3z"/>
		</g>
	</g>
</g>
<g>
	<g>
		<g>
			<path class="st0" d="M8.3,6.4c-2.7,0-5.1,2.3-5.1,5s2.3,5.1,5,5.1h0.1c2.7,0,4.9-2.3,5-5C13.4,8.7,11.1,6.5,8.3,6.4L8.3,6.4z"/>
		</g>
	</g>
</g>
<path class="st0" d="M25.7,18.3c-0.1,0-0.2,0-0.2,0h-0.1c-3,0-6.1,0-9.1,0c0,0-0.1,0-0.1,0c-0.1,0-0.2,0-0.2,0
	c-2.6,0-4.3,1.8-4.3,4.4c0,0.1,0,0.2,0,0.2c0,1.3,0,2.6,0,3.7c0,0.8,0.3,1.1,1.1,1.1h16.1c0.8,0,1.1-0.3,1.1-1.1c0-1.2,0-2.4,0-3.7
	c0-0.1,0-0.2,0-0.2C30,20.1,28.3,18.3,25.7,18.3z"/>
</svg>
