<?xml version="1.0" encoding="utf-8"?>
<!-- Generator: Adobe Illustrator 21.1.0, SVG Export Plug-In . SVG Version: 6.00 Build 0)  -->
<svg version="1.1" id="Layer_1" xmlns="http://www.w3.org/2000/svg" xmlns:xlink="http://www.w3.org/1999/xlink" x="0px" y="0px"
	 viewBox="0 0 32 32" style="enable-background:new 0 0 32 32;" xml:space="preserve">
<style type="text/css">
	.st0{fill:#1E3D54;}
</style>
<title>about3</title>
<g>
	<g>
		<g>
			<path class="st0" d="M11.2,19.6H8.6H5.3H5.1c-1.9,0-3.1,1.3-3.1,3.1c0,0.1,0,0.2,0,0.3c0,0.9,0,1.8,0,2.7c0,0.7,0.2,0.8,0.8,0.8
				h6.1v-0.1c0-0.9,0-2.5,0-3.5c0-0.1,0-0.2,0-0.3C9,21,9.9,19.9,11.2,19.6L11.2,19.6z"/>
		</g>
	</g>
</g>
<g>
	<g>
		<g>
			<path class="st0" d="M18.7,7.3C18.7,7.3,18.6,7.3,18.7,7.3C18.6,7.3,18.7,7.3,18.7,7.3L18.7,7.3z M18.6,7.3
				c-2.9,0-5.2,2.3-5.2,5.2s2.3,5.2,5.2,5.3c2.9,0,5.2-2.3,5.2-5.2C23.9,9.7,21.6,7.3,18.6,7.3L18.6,7.3z"/>
		</g>
	</g>
</g>
<g>
	<g>
		<g>
			<path class="st0" d="M7.6,9.2c-2.4,0-4.5,2-4.5,4.4s2,4.5,4.4,4.5h0.1c2.4,0,4.3-2,4.4-4.4C12.1,11.2,10.1,9.3,7.6,9.2L7.6,9.2z"
				/>
		</g>
	</g>
</g>
<g>
	<g>
		<g>
			<path class="st0" d="M27.8,3.9c-0.1,0-0.2,0-0.4,0c-1.1,0.2-2,1.1-2,2.1c0,2.5,0,5,0,7.7c0,0.3-0.1,0.7-0.2,0.9
				c-0.6,1.5-1.1,3-1.7,4.5c-0.1,0.4-0.4,0.6-0.7,0.6h-0.1c-2.8,0-5.6,0-8.4,0c-2.3,0-3.8,1.6-3.8,3.9c0,1.2,0,2.4,0,3.5
				c0,0.7,0.3,1,1,1h14.3c0.7,0,1-0.3,1-1c0-1.1,0-2.1,0-3.3c0-0.2,0-0.5,0.1-0.7c0.9-2.5,1.9-5,2.9-7.6c0.2-0.4,0.2-0.8,0.2-1.2v-8
				c0-0.4,0-0.7-0.1-1C29.5,4.4,28.7,3.9,27.8,3.9L27.8,3.9z"/>
		</g>
	</g>
</g>
</svg>
