<?xml version="1.0" encoding="utf-8"?>
<!-- Generator: Adobe Illustrator 21.1.0, SVG Export Plug-In . SVG Version: 6.00 Build 0)  -->
<svg version="1.1" id="Layer_1" xmlns="http://www.w3.org/2000/svg" xmlns:xlink="http://www.w3.org/1999/xlink" x="0px" y="0px"
	 viewBox="0 0 32 32" style="enable-background:new 0 0 32 32;" xml:space="preserve">
<style type="text/css">
	.st0{fill:#1E3D54;}
</style>
<title>about3</title>
<g>
	<g>
		<g>
			<path class="st0" d="M7,21.6c-0.1,0.3-0.1,0.6-0.1,1l0,0.1v0.1V23v1.5l-2.9,0V23v-0.3c0-0.7,0.4-1.1,1.1-1.1h0.2H7 M11.2,19.6
				H8.6H5.3H5.1c-1.9,0-3.1,1.3-3.1,3.1c0,0.1,0,0.2,0,0.3c0,0.9,0,1.8,0,2.7c0,0.7,0.2,0.8,0.8,0.8h6.1v-0.1c0-0.9,0-2.5,0-3.5
				c0-0.1,0-0.2,0-0.3C9,21,9.9,19.9,11.2,19.6L11.2,19.6z"/>
		</g>
	</g>
</g>
<g>
	<g>
		<g>
			<path class="st0" d="M18.6,9.3c0.9,0,1.8,0.3,2.4,1c0.6,0.6,0.9,1.4,0.9,2.3l0,0v0c0,1.8-1.4,3.2-3.2,3.2
				c-1.8-0.1-3.3-1.5-3.3-3.3C15.4,10.8,16.8,9.3,18.6,9.3 M18.7,7.3C18.7,7.3,18.7,7.3,18.7,7.3L18.7,7.3L18.7,7.3z M18.7,7.3
				L18.7,7.3C18.7,7.3,18.7,7.3,18.7,7.3L18.7,7.3z M18.6,7.3c-2.9,0-5.2,2.3-5.2,5.2s2.3,5.2,5.2,5.3c2.9,0,5.2-2.3,5.2-5.2
				C23.9,9.7,21.6,7.3,18.6,7.3L18.6,7.3z"/>
		</g>
	</g>
</g>
<g>
	<g>
		<g>
			<path class="st0" d="M7.6,11.2c1.4,0.1,2.5,1.2,2.4,2.4C10,15,8.9,16.1,7.6,16.1H7.5c-1.3,0-2.4-1.1-2.4-2.5
				C5.2,12.3,6.3,11.2,7.6,11.2 M7.6,9.2c-2.4,0-4.5,2-4.5,4.4c0,2.4,2,4.5,4.4,4.5h0.1c2.4,0,4.3-2,4.4-4.4
				C12.1,11.2,10.1,9.3,7.6,9.2L7.6,9.2z"/>
		</g>
	</g>
</g>
<g>
	<g>
		<g>
			<path class="st0" d="M27.8,5.9c0.1,0,0.2,0,0.2,0.1c0,0.1,0,0.2,0,0.4v8c0,0.1,0,0.3,0,0.4l0,0.1c-1,2.5-2,5.1-2.9,7.6
				c-0.2,0.6-0.2,1.1-0.2,1.4l0,2.3l-12.3,0v-2.6c0-0.9,0.3-1.9,1.8-1.9h8.4h0.1c1.2,0,2.3-0.8,2.6-1.9l0.8-2.2l0.8-2.2l0,0l0,0
				c0.1-0.4,0.3-1,0.3-1.6l0-7.6c0,0,0.1-0.1,0.2-0.2H27.8 M27.8,3.9c-0.1,0-0.2,0-0.4,0c-1.1,0.2-2,1.1-2,2.1c0,2.5,0,5,0,7.7
				c0,0.3-0.1,0.7-0.2,0.9c-0.6,1.5-1.1,3-1.7,4.5c-0.1,0.4-0.4,0.6-0.7,0.6h-0.1c-2.8,0-5.6,0-8.4,0c-2.3,0-3.8,1.6-3.8,3.9
				c0,1.2,0,2.4,0,3.5c0,0.7,0.3,1,1,1h14.3c0.7,0,1-0.3,1-1c0-1.1,0-2.1,0-3.3c0-0.2,0-0.5,0.1-0.7c0.9-2.5,1.9-5,2.9-7.6
				c0.2-0.4,0.2-0.8,0.2-1.2v-8c0-0.4,0-0.7-0.1-1C29.5,4.4,28.7,3.9,27.8,3.9L27.8,3.9z"/>
		</g>
	</g>
</g>
</svg>
