<?xml version="1.0" encoding="utf-8"?>
<!-- Generator: Adobe Illustrator 21.1.0, SVG Export Plug-In . SVG Version: 6.00 Build 0)  -->
<svg version="1.1" id="Layer_1" xmlns="http://www.w3.org/2000/svg" xmlns:xlink="http://www.w3.org/1999/xlink" x="0px" y="0px"
	 viewBox="0 0 32 32" style="enable-background:new 0 0 32 32;" xml:space="preserve">
<style type="text/css">
	.st0{fill:#1E3D54;}
</style>
<title>about3</title>
<path class="st0" d="M25.3,21.1c-1.7-0.9-3.7-0.6-5.1,0.6l-6.9-3.7c0.4-1.1,0.4-2.3,0-3.4l7.3-4c0.8,0.5,1.7,0.8,2.6,0.8
	c0,0,0,0,0,0c1.2,0,2.4-0.5,3.3-1.4c0.9-0.9,1.4-2.1,1.4-3.3c0-2.6-2.1-4.7-4.7-4.7c0,0,0,0,0,0c-2.6,0-4.7,2.1-4.7,4.7
	c0,0.8,0.2,1.6,0.6,2.3l-7,3.8c-0.9-0.8-2-1.2-3.2-1.2c-1.3,0-2.4,0.5-3.3,1.4c-1.8,1.8-1.8,4.8,0,6.6c1.8,1.8,4.6,1.8,6.5,0.1
	l6.9,3.7c-1,2.3-0.1,5,2.2,6.1c0.7,0.3,1.4,0.5,2.1,0.5c1.7,0,3.4-0.9,4.2-2.6c0.6-1.1,0.7-2.4,0.3-3.6
	C27.2,22.6,26.4,21.7,25.3,21.1z"/>
</svg>
