<?xml version="1.0" encoding="utf-8"?>
<!-- Generator: Adobe Illustrator 22.0.1, SVG Export Plug-In . SVG Version: 6.00 Build 0)  -->
<svg version="1.1" id="Layer_1" xmlns="http://www.w3.org/2000/svg" xmlns:xlink="http://www.w3.org/1999/xlink" x="0px" y="0px"
	 viewBox="0 0 32 32" style="enable-background:new 0 0 32 32;" xml:space="preserve">
<style type="text/css">
	.st0{fill:#1E3D54;}
</style>
<title>about3</title>
<g>
	<path class="st0" d="M23.8,10.8c2.9,0,5.2,2.3,5.2,5.2s-2.3,5.2-5.2,5.2H8.2C5.3,21.2,3,18.9,3,16s2.3-5.2,5.2-5.2H23.8 M23.8,9.8
		H8.2C4.8,9.8,2,12.6,2,16s2.8,6.2,6.2,6.2h15.6c3.4,0,6.2-2.8,6.2-6.2S27.2,9.8,23.8,9.8L23.8,9.8z"/>
</g>
<g>
	<path class="st0" d="M23.8,13c1.7,0,3,1.3,3,3s-1.3,3-3,3s-3-1.3-3-3S22.1,13,23.8,13 M23.8,12c-2.2,0-4,1.8-4,4s1.8,4,4,4
		s4-1.8,4-4S26,12,23.8,12L23.8,12z"/>
</g>
</svg>
