<?xml version="1.0" encoding="utf-8"?>
<!-- Generator: Adobe Illustrator 22.0.1, SVG Export Plug-In . SVG Version: 6.00 Build 0)  -->
<svg version="1.1" id="Layer_1" xmlns="http://www.w3.org/2000/svg" xmlns:xlink="http://www.w3.org/1999/xlink" x="0px" y="0px"
	 viewBox="0 0 32 32" style="enable-background:new 0 0 32 32;" xml:space="preserve">
<style type="text/css">
	.st0{fill:#1E3D54;}
</style>
<title>about3</title>
<g>
	<path class="st0" d="M8.2,21.2C5.3,21.2,3,18.9,3,16s2.3-5.2,5.2-5.2h15.6c2.9,0,5.2,2.3,5.2,5.2s-2.3,5.2-5.2,5.2H8.2 M8.2,22.2
		h15.6c3.4,0,6.2-2.8,6.2-6.2s-2.8-6.2-6.2-6.2H8.2C4.8,9.8,2,12.6,2,16S4.8,22.2,8.2,22.2L8.2,22.2z"/>
</g>
<g>
	<path class="st0" d="M8.2,19c-1.7,0-3-1.3-3-3c0-1.7,1.3-3,3-3s3,1.3,3,3S9.9,19,8.2,19 M8.2,20c2.2,0,4-1.8,4-4s-1.8-4-4-4
		s-4,1.8-4,4S6,20,8.2,20L8.2,20z"/>
</g>
</svg>
