<?xml version="1.0" encoding="utf-8"?>
<!-- Generator: Adobe Illustrator 21.1.0, SVG Export Plug-In . SVG Version: 6.00 Build 0)  -->
<svg version="1.1" id="Layer_1" xmlns="http://www.w3.org/2000/svg" xmlns:xlink="http://www.w3.org/1999/xlink" x="0px" y="0px"
	 viewBox="0 0 32 32" style="enable-background:new 0 0 32 32;" xml:space="preserve">
<style type="text/css">
	.st0{fill:#1E3D54;}
</style>
<title>about3</title>
<g id="Icons">
	<g id="twitter">
		<path id="Shape" class="st0" d="M27.3,10.9c0,0.3,0,0.6,0,0.8c0,3.1-0.9,6.2-2.7,9c-1.9,2.8-4.3,5-7.9,6.3c-1.8,0.7-3.7,1-5.7,1
			c-3.2,0-6.1-0.9-8.8-2.6c0.6,0.1,1.1,0.1,1.4,0.1c2.7,0,5-0.8,7.1-2.5c-2.5-0.1-4.6-1.7-5.4-4c0.3,0.1,0.7,0.1,1.1,0.1
			c0.5,0,1-0.1,1.5-0.2c-2.6-0.5-4.6-2.9-4.6-5.6v-0.1c0.8,0.5,1.7,0.7,2.6,0.7c-1.6-1.1-2.6-2.8-2.6-4.8c0-1,0.3-2,0.8-2.9
			C7,9.8,11.3,12,16,12.3c-0.1-0.4-0.1-0.8-0.1-1.3c0-3.2,2.6-5.7,5.7-5.7c1.6,0,3,0.6,4.2,1.8c1.3-0.3,2.6-0.7,3.7-1.4
			C29,7,28.1,8.1,26.9,8.8c1.1-0.1,2.2-0.4,3.3-0.9C29.4,9.1,28.5,10.1,27.3,10.9z"/>
	</g>
</g>
</svg>
