<?xml version="1.0" encoding="utf-8"?>
<!-- Generator: Adobe Illustrator 21.1.0, SVG Export Plug-In . SVG Version: 6.00 Build 0)  -->
<svg version="1.1" id="Layer_1" xmlns="http://www.w3.org/2000/svg" xmlns:xlink="http://www.w3.org/1999/xlink" x="0px" y="0px"
	 viewBox="0 0 114 36" style="enable-background:new 0 0 114 36;" xml:space="preserve">
<style type="text/css">
	.st0{fill:#1E3D54;}
	.st1{opacity:0.4;fill:#1E3D54;}
	.st2{opacity:0.7;fill:#1E3D54;}
</style>
<title>Page 1</title>
<desc>Created with Sketch.</desc>
<g>
	<path id="Fill-1" class="st0" d="M109.8,12.8L109.8,12.8c0-4.2-3-7.6-7.2-7.6c-4.2,0-7.1,3.4-7.1,7.5v0.1c0,4.1,3,7.5,7.2,7.5
		C106.8,20.2,109.8,16.9,109.8,12.8L109.8,12.8z M91.5,12.8L91.5,12.8c0-6,4.6-11,11.1-11s11.1,4.9,11.1,10.9v0.1
		c0,6-4.6,11-11.1,11C96,23.7,91.5,18.7,91.5,12.8L91.5,12.8z M68.4,5.6h-5.1c-1,0-1.7-0.8-1.7-1.7s0.8-1.7,1.7-1.7h14.1
		C78.3,2.1,79,2.9,79,3.8s-0.8,1.7-1.7,1.7h-5.2v16c0,1-0.8,1.8-1.9,1.8c-1,0-1.9-0.8-1.9-1.8L68.4,5.6z M47.5,3.8
		c0-1,0.8-1.8,1.9-1.8c1,0,1.8,0.8,1.8,1.8v16.1h9.6c0.9,0,1.7,0.8,1.7,1.7s-0.8,1.7-1.7,1.7H49.4c-1.1,0-1.9-0.8-1.9-1.9V3.8z M0,4
		c0-1.1,0.8-1.9,1.9-1.9h6.5c5,0,8.1,2.8,8.1,7.1v0.1c0,4.8-3.8,7.2-8.5,7.2H3.7v5.1c0,1-0.8,1.8-1.8,1.8c-1.1,0-1.9-0.8-1.9-1.8V4z
		 M8.1,13.1c2.8,0,4.6-1.6,4.6-3.8c0-2.5-1.8-3.8-4.6-3.8H3.7v7.6H8.1z"/>
	<path id="Fill-3" class="st0" d="M39.4,7.1c-0.8,0.5-1.1,1.5-0.6,2.3c1.4,2.3,1.5,5.1,0.5,7.6v0.1l-0.1,0.1c-0.9,2-2.5,3.4-4.6,4.3
		c-3.6,1.6-4.5,4.4-4.9,5.4c-0.4,0.9,0.1,1.9,0.9,2.2c0.1,0.1,0.3,0.1,0.4,0.1c0.8,0.1,1.5-0.3,1.8-1c0.3-0.7,0.9-2.8,3-3.6
		c2.9-1.1,5.1-3.3,6.4-6.1c0-0.1,0-0.1,0.1-0.2c0-0.1,0.1-0.1,0.1-0.2c1.5-3.3,1.2-7.2-0.7-10.4C41.2,6.9,40.2,6.6,39.4,7.1z"/>
	<path id="Fill-5" class="st1" d="M27.2,24.8c-0.1,0-0.3-0.1-0.4-0.1c-3.5-1.5-6-4.4-6.9-8.1c-0.2-0.9,0.3-1.8,1.2-2.1
		c0.9-0.2,1.8,0.3,2.1,1.2c0.7,2.6,2.5,4.7,5,5.8c0.9,0.4,1.3,1.4,0.9,2.2C28.7,24.5,27.9,24.9,27.2,24.8"/>
	<path id="Fill-9" class="st2" d="M21.4,12.2c-0.1,0-0.2,0-0.3-0.1c-0.8-0.2-1.3-1.2-1-2.1c0.1-0.3,0.2-0.6,0.4-1
		c2.1-5.1,7.4-8,12.9-7.2c0.9,0.1,1.9,0.4,2.7,0.8C36.4,2.7,36.7,2.9,37,3c0.8,0.4,1.2,1.5,0.7,2.3c-0.4,0.8-1.5,1.2-2.3,0.7
		c-0.2-0.1-0.4-0.2-0.7-0.3c-0.6-0.3-1.3-0.5-2-0.6c-3.9-0.6-7.7,1.5-9.2,5.1c-0.1,0.2-0.2,0.5-0.3,0.7C23,11.9,22.2,12.4,21.4,12.2
		"/>
	<path id="Fill-11" class="st0" d="M83,9.8c0-1,0.8-1.8,1.9-1.8c1,0,1.8,0.8,1.8,1.8v11.8c0,1-0.8,1.8-1.8,1.8
		c-1.1,0-1.9-0.8-1.9-1.8V9.8z"/>
	<path id="Fill-13" class="st0" d="M84.9,5.8c-1.4,0-2.5-1.1-2.5-2.5s1.1-2.5,2.5-2.5s2.5,1,2.5,2.5C87.4,4.7,86.3,5.8,84.9,5.8z"/>
	<path id="Fill-13-Copy" class="st0" d="M33.6,33.1c0,1.4-1.1,2.5-2.5,2.5s-2.5-1.1-2.5-2.5s1.1-2.5,2.5-2.5S33.6,31.6,33.6,33.1"/>
</g>
</svg>
