<?xml version="1.0" encoding="utf-8"?>
<!-- Generator: Adobe Illustrator 22.0.1, SVG Export Plug-In . SVG Version: 6.00 Build 0)  -->
<svg version="1.1" id="Layer_1" xmlns="http://www.w3.org/2000/svg" xmlns:xlink="http://www.w3.org/1999/xlink" x="0px" y="0px"
	 viewBox="0 0 100 171.7" style="enable-background:new 0 0 100 171.7;" xml:space="preserve">
<style type="text/css">
	.st0{opacity:0.5;}
	.st1{opacity:0.3;fill:#1E3D54;enable-background:new    ;}
	.st2{opacity:0.1;fill:#1E3D54;enable-background:new    ;}
	.st3{opacity:0.2;fill:#1E3D54;enable-background:new    ;}
</style>
<g class="st0">
	<path id="Fill-3" class="st1" d="M31.4,33.5c-0.7,0.4-0.9,1.2-0.5,1.9c1.2,1.9,1.2,4.2,0.4,6.3v0.1l-0.1,0.1
		c-0.7,1.7-2.1,2.8-3.8,3.5c-3,1.3-3.7,3.6-4,4.5c-0.3,0.7,0.1,1.6,0.7,1.8c0.1,0.1,0.2,0.1,0.3,0.1c0.7,0.1,1.2-0.2,1.5-0.8
		c0.2-0.6,0.7-2.3,2.5-3c2.4-0.9,4.2-2.7,5.3-5c0-0.1,0-0.1,0.1-0.2c0-0.1,0.1-0.1,0.1-0.2c1.2-2.7,1-5.9-0.6-8.6
		C32.9,33.3,32.1,33.1,31.4,33.5z"/>
	<path id="Fill-5_2_" class="st2" d="M18,45c-0.1,0-0.2-0.2-0.3-0.2c-2-2.3-2.8-5.2-2.2-8.2c0.2-0.7,0.8-1.2,1.6-1.1
		c0.7,0.2,1.2,0.8,1.1,1.6c-0.4,2.1,0.2,4.2,1.7,5.9c0.5,0.6,0.5,1.5-0.1,1.9C19.2,45.3,18.4,45.3,18,45"/>
	<path class="st3" d="M29.4,30.1c-0.2-0.1-0.5-0.2-0.7-0.3c-0.7-0.3-1.5-0.6-2.2-0.7c-2.8-0.4-5.5,0.3-7.6,1.9
		c-0.3,0.2-0.6,0.5-0.8,0.8c0,0.1-0.2,0.2-0.2,0.3c-0.3,0.5-0.5,1.1,0,1.7c0.5,0.6,1.4,0.6,2,0c1.6-1.6,3.8-2.3,6-2c0,0,0,0,0.1,0
		c0,0,0,0,0.1,0c0.6,0.1,1.2,0.2,1.7,0.5c0.2,0.1,0.4,0.2,0.6,0.2c0.7,0.4,1.6,0.1,1.9-0.6C30.4,31.3,30.1,30.4,29.4,30.1z"/>
	<path id="Fill-13-Copy" class="st1" d="M26.6,54.9c0,1.2-0.9,2.1-2.1,2.1s-2.1-0.9-2.1-2.1c0-1.2,0.9-2.1,2.1-2.1
		C25.7,52.9,26.6,53.7,26.6,54.9"/>
</g>
<g class="st0">
	<path id="Fill-3_2_" class="st1" d="M81.4,119.5c-0.7,0.4-0.9,1.2-0.5,1.9c1.2,1.9,1.2,4.2,0.4,6.3v0.1l-0.1,0.1
		c-0.7,1.7-2.1,2.8-3.8,3.5c-3,1.3-3.7,3.6-4,4.5c-0.3,0.7,0.1,1.6,0.7,1.8c0.1,0.1,0.2,0.1,0.3,0.1c0.7,0.1,1.2-0.2,1.5-0.8
		c0.2-0.6,0.7-2.3,2.5-3c2.4-0.9,4.2-2.7,5.3-5c0-0.1,0-0.1,0.1-0.2c0-0.1,0.1-0.1,0.1-0.2c1.2-2.7,1-5.9-0.6-8.6
		C82.9,119.3,82.1,119.1,81.4,119.5z"/>
	<path id="Fill-5_3_" class="st2" d="M68,131c-0.1,0-0.2-0.2-0.3-0.2c-2-2.3-2.8-5.2-2.2-8.2c0.2-0.7,0.8-1.2,1.6-1.1
		c0.7,0.2,1.2,0.8,1.1,1.6c-0.4,2.1,0.2,4.2,1.7,5.9c0.5,0.6,0.5,1.5-0.1,1.9C69.2,131.3,68.4,131.3,68,131"/>
	<path class="st3" d="M79.4,116.1c-0.2-0.1-0.5-0.2-0.7-0.3c-0.7-0.3-1.5-0.6-2.2-0.7c-2.8-0.4-5.5,0.3-7.6,1.9
		c-0.3,0.2-0.6,0.5-0.8,0.8c0,0.1-0.2,0.2-0.2,0.3c-0.3,0.5-0.5,1.1,0,1.7s1.4,0.6,2,0c1.6-1.6,3.8-2.3,6-2c0,0,0,0,0.1,0
		c0,0,0,0,0.1,0c0.6,0.1,1.2,0.2,1.7,0.5c0.2,0.1,0.4,0.2,0.6,0.2c0.7,0.4,1.6,0.1,1.9-0.6C80.4,117.3,80.1,116.4,79.4,116.1z"/>
	<path id="Fill-13-Copy_2_" class="st1" d="M76.6,140.9c0,1.2-0.9,2.1-2.1,2.1s-2.1-0.9-2.1-2.1c0-1.2,0.9-2.1,2.1-2.1
		C75.7,138.9,76.6,139.7,76.6,140.9"/>
</g>
</svg>
