<?xml version="1.0" encoding="utf-8"?>
<!-- Generator: Adobe Illustrator 22.1.0, SVG Export Plug-In . SVG Version: 6.00 Build 0)  -->
<svg version="1.1" id="Layer_1" xmlns="http://www.w3.org/2000/svg" xmlns:xlink="http://www.w3.org/1999/xlink" x="0px" y="0px"
	 viewBox="0 0 530 277" style="enable-background:new 0 0 530 277;" xml:space="preserve">
<style type="text/css">
	.st0{fill:#57BDEC;}
	.st1{clip-path:url(#SVGID_2_);fill:#57BDEC;}
	.st2{fill:#FFFFFF;}
	.st3{clip-path:url(#SVGID_4_);fill:#57BDEC;}
	.st4{clip-path:url(#SVGID_6_);fill:#57BDEC;}
	.st5{clip-path:url(#SVGID_8_);fill:#57BDEC;}
	.st6{clip-path:url(#SVGID_10_);fill:#57BDEC;}
	.st7{clip-path:url(#SVGID_12_);fill:#69B542;}
	.st8{fill:#69B542;}
	.st9{fill:none;}
	.st10{clip-path:url(#SVGID_14_);fill:#3C3C3B;}
</style>
<polygon points="0,0 0,78.6 151,78.6 151,135.6 96.3,135.6 96.3,214.2 496.9,214.2 496.9,145.8 530,145.8 530,67.2 374,67.2 374,0 
	"/>
<polygon class="st0" points="34.5,57.2 34.5,20.9 62,20.9 62,30.5 45.5,30.5 45.5,34.1 61.7,34.1 61.7,43.7 45.5,43.7 45.5,57.2 "/>
<rect x="69.6" y="20.9" class="st0" width="11" height="36.3"/>
<polygon class="st0" points="113.7,57.2 100.4,38.8 100.4,57.2 89.4,57.2 89.4,20.9 100.7,20.9 113.3,38.1 113.3,20.9 124.3,20.9 
	124.3,57.2 "/>
<path class="st0" d="M149.3,31.7l-3.6,11.7h7.2L149.3,31.7z M157.2,57.2l-1.3-4.2h-13l-1.3,4.2h-12.5l13.4-36.3h13.8l13.4,36.3
	H157.2z"/>
<polygon class="st0" points="198.8,57.2 185.4,38.8 185.4,57.2 174.4,57.2 174.4,20.9 185.7,20.9 198.3,38.1 198.3,20.9 209.3,20.9 
	209.3,57.2 "/>
<g>
	<g>
		<defs>
			<rect id="SVGID_1_" width="530" height="270.3"/>
		</defs>
		<clipPath id="SVGID_2_">
			<use xlink:href="#SVGID_1_"  style="overflow:visible;"/>
		</clipPath>
		<path class="st1" d="M216.1,39.1c0-11.2,8.6-18.8,20-18.8c9.5,0,14.3,5.5,16.5,10.5l-9.5,4.4c-0.9-2.8-3.8-5.3-7-5.3
			c-5.3,0-8.8,4-8.8,9.1s3.5,9.1,8.8,9.1c3.3,0,6.1-2.4,7-5.3l9.5,4.4c-2.1,4.8-7,10.6-16.5,10.6C224.7,57.8,216.1,50.2,216.1,39.1"
			/>
	</g>
</g>
<rect x="258.8" y="20.9" class="st0" width="11" height="36.3"/>
<path class="st2" d="M294.7,31.7l-3.6,11.7h7.2L294.7,31.7z M302.6,57.2l-1.3-4.2h-13l-1.3,4.2h-12.5l13.4-36.3h13.8L315,57.2H302.6
	z"/>
<polygon class="st0" points="319.8,57.2 319.8,20.9 330.8,20.9 330.8,47.6 344.5,47.6 344.5,57.2 "/>
<rect x="181.1" y="88.6" class="st0" width="11" height="36.3"/>
<polygon class="st0" points="225.2,124.9 211.8,106.5 211.8,124.9 200.8,124.9 200.8,88.6 212.1,88.6 224.8,105.8 224.8,88.6 
	235.7,88.6 235.7,124.9 "/>
<g>
	<g>
		<defs>
			<rect id="SVGID_3_" width="530" height="270.3"/>
		</defs>
		<clipPath id="SVGID_4_">
			<use xlink:href="#SVGID_3_"  style="overflow:visible;"/>
		</clipPath>
		<path class="st3" d="M242.5,106.8c0-11.2,8.6-18.8,20-18.8c9.5,0,14.3,5.5,16.5,10.5l-9.5,4.4c-0.9-2.8-3.8-5.3-7-5.3
			c-5.3,0-8.8,4-8.8,9.1s3.5,9.1,8.8,9.1c3.3,0,6.1-2.4,7-5.3l9.5,4.4c-2.1,4.8-7,10.6-16.5,10.6
			C251.1,125.6,242.5,117.9,242.5,106.8"/>
	</g>
</g>
<polygon class="st2" points="285.1,124.9 285.1,88.6 296.1,88.6 296.1,115.3 309.9,115.3 309.9,124.9 "/>
<g>
	<g>
		<defs>
			<rect id="SVGID_5_" width="530" height="270.3"/>
		</defs>
		<clipPath id="SVGID_6_">
			<use xlink:href="#SVGID_5_"  style="overflow:visible;"/>
		</clipPath>
		<path class="st4" d="M315.4,110V88.6h11.1v21c0,3.5,2.3,6.3,6.8,6.3s6.7-2.8,6.7-6.3v-21h11.1V110c0,9-5.7,15.6-17.9,15.6
			C321.1,125.6,315.4,119,315.4,110"/>
	</g>
	<g>
		<defs>
			<rect id="SVGID_7_" width="530" height="270.3"/>
		</defs>
		<clipPath id="SVGID_8_">
			<use xlink:href="#SVGID_7_"  style="overflow:visible;"/>
		</clipPath>
		<path class="st5" d="M357,119.8l5.7-8.2c2.7,2.6,6.8,4.7,11.7,4.7c2.1,0,4-0.5,4-2c0-3.5-20.2,0.1-20.2-14.2c0-6.1,5.1-12,15.1-12
			c5.9,0,11.3,1.7,15.4,5.1l-5.9,7.8c-3.2-2.4-7.2-3.6-10.7-3.6c-2.2,0-2.8,0.7-2.8,1.6c0,3.4,20.2,0.5,20.2,14
			c0,8-5.9,12.6-15.7,12.6C366.2,125.6,360.9,123.3,357,119.8"/>
	</g>
</g>
<rect x="396.4" y="88.6" class="st0" width="11" height="36.3"/>
<g>
	<g>
		<defs>
			<rect id="SVGID_9_" width="530" height="270.3"/>
		</defs>
		<clipPath id="SVGID_10_">
			<use xlink:href="#SVGID_9_"  style="overflow:visible;"/>
		</clipPath>
		<path class="st6" d="M442.7,106.8c0-5.1-3.4-9.1-8.7-9.1s-8.7,4-8.7,9.1s3.4,9.1,8.7,9.1C439.2,115.9,442.7,111.9,442.7,106.8
			 M414.1,106.8c0-11.1,8.6-18.8,19.8-18.8s19.8,7.6,19.8,18.8s-8.6,18.8-19.8,18.8C422.8,125.6,414.1,117.9,414.1,106.8"/>
	</g>
</g>
<polygon class="st0" points="485,124.9 471.6,106.5 471.6,124.9 460.6,124.9 460.6,88.6 471.9,88.6 484.5,105.8 484.5,88.6 
	495.5,88.6 495.5,124.9 "/>
<g>
	<g>
		<defs>
			<rect id="SVGID_11_" width="530" height="270.3"/>
		</defs>
		<clipPath id="SVGID_12_">
			<use xlink:href="#SVGID_11_"  style="overflow:visible;"/>
		</clipPath>
		<path class="st7" d="M127.7,174.5c0-11.2,8.6-18.8,20-18.8c9.5,0,14.3,5.5,16.5,10.5l-9.5,4.4c-0.9-2.8-3.8-5.3-7-5.3
			c-5.3,0-8.8,4-8.8,9.1s3.5,9.1,8.8,9.1c3.3,0,6.1-2.4,7-5.3l9.5,4.4c-2.1,4.8-7,10.6-16.5,10.6
			C136.3,193.3,127.7,185.7,127.7,174.5"/>
	</g>
</g>
<polygon class="st8" points="194.3,192.6 194.3,178.8 181.3,178.8 181.3,192.6 170.4,192.6 170.4,156.4 181.3,156.4 181.3,169.2 
	194.3,169.2 194.3,156.4 205.3,156.4 205.3,192.6 "/>
<path class="st8" d="M230.4,167.1l-3.6,11.7h7.2L230.4,167.1z M238.2,192.6l-1.3-4.2h-13l-1.3,4.2h-12.5l13.4-36.3h13.8l13.4,36.3
	H238.2z"/>
<polygon class="st8" points="255.4,192.6 255.4,156.4 266.4,156.4 266.4,183.1 280.2,183.1 280.2,192.6 "/>
<polygon class="st2" points="286,192.6 286,156.4 297,156.4 297,183.1 310.8,183.1 310.8,192.6 "/>
<polygon class="st8" points="316.7,192.6 316.7,156.4 344.2,156.4 344.2,165.9 327.6,165.9 327.6,169.5 343.8,169.5 343.8,179.1 
	327.6,179.1 327.6,183.1 344.2,183.1 344.2,192.6 "/>
<polygon class="st8" points="376.8,192.6 363.4,174.2 363.4,192.6 352.5,192.6 352.5,156.4 363.8,156.4 376.4,173.5 376.4,156.4 
	387.4,156.4 387.4,192.6 "/>
<path class="st8" d="M394.1,174.5c0-11.6,9-18.8,20-18.8c8.6,0,13.6,4.8,15.9,9.5l-9.2,4.7c-1-2.2-3.4-4.5-6.7-4.5
	c-5.3,0-8.8,4-8.8,9.1s3.5,9.1,8.8,9.1c2.1,0,4.5-0.8,5.7-1.6v-1.3H413v-9.6h17.7v14.8c-4,4.5-9.5,7.3-16.6,7.3
	C403.1,193.3,394.1,186.1,394.1,174.5"/>
<rect class="st9" width="530" height="270.3"/>
<polygon class="st8" points="438.7,192.6 438.7,156.4 466.2,156.4 466.2,165.9 449.6,165.9 449.6,169.5 465.8,169.5 465.8,179.1 
	449.6,179.1 449.6,183.1 466.2,183.1 466.2,192.6 "/>
<g>
	<g>
		<defs>
			<rect id="SVGID_13_" width="530" height="270.3"/>
		</defs>
		<clipPath id="SVGID_14_">
			<use xlink:href="#SVGID_13_"  style="overflow:visible;"/>
		</clipPath>
		<path class="st10" d="M493.9,265v-9.9c0-2.5-1.4-4-3.9-4c-1.9,0-3.5,1.1-4.8,2.3l-0.3-2h-2V265h2.5v-9.4c1.2-1.3,2.6-2.2,3.9-2.2
			c1.5,0,2.1,0.9,2.1,2.3v9.3H493.9z M477,258.2c0,2.8-1.3,5-3.8,5c-2.4,0-3.7-2.2-3.7-5c0-2.8,1.2-5,3.7-5
			C475.7,253.3,477,255.4,477,258.2 M479.6,258.2c0-4.5-2.7-7.1-6.3-7.1s-6.2,2.6-6.2,7.1s2.6,7.1,6.2,7.1
			C476.9,265.3,479.6,262.7,479.6,258.2 M463.6,251.4h-2.5V265h2.5V251.4z M464,247.1c0-0.9-0.7-1.6-1.6-1.6c-0.9,0-1.6,0.7-1.6,1.6
			s0.7,1.6,1.6,1.6C463.3,248.7,464,248,464,247.1 M457.8,265.1l-0.3-2.2c-0.3,0.1-0.7,0.1-1.2,0.1c-1.4,0-1.9-0.7-1.9-1.8v-7.6h3.3
			l-0.3-2.1h-2.9v-4.9L452,247v4.5h-2.1v2.1h2.1v8.1c0,2.7,1.6,3.6,4,3.6C456.8,265.2,457.4,265.1,457.8,265.1 M444.8,261.3
			c-1.1,1.2-2.6,1.9-4,1.9c-1.3,0-2-0.7-2-1.8c0-1.4,1.1-2.8,6.1-3.2L444.8,261.3L444.8,261.3z M447.4,265v-9.5c0-3-1.6-4.4-4.9-4.4
			c-2.1,0-3.6,0.5-5.3,1.1l0.3,2.2c1.5-0.7,3-1.2,4.7-1.2c1.6,0,2.6,0.6,2.6,2.3v0.6c-5.7,0.6-8.6,1.9-8.6,5.3c0,2.3,1.5,3.8,4,3.8
			c2.2,0,3.7-1,4.8-2.1l0.3,1.8h2.1V265z M430.5,260.6c-1.1,1.5-2.3,2.4-3.8,2.4c-1.8,0-3.2-1.6-3.2-4.6c0-3.4,1.5-5.1,3.7-5.1
			c1.5,0,2.3,0.2,3.3,0.8V260.6z M433.1,265v-20.6l-2.5,0.4v7c-0.9-0.3-2.1-0.6-3.4-0.6c-3.3,0-6.2,2.4-6.2,7.4
			c0,4.6,2.4,6.7,5.4,6.7c2,0,3.4-1,4.4-2.3l0.3,2H433.1z M417.8,265v-9.9c0-2.5-1.4-4-3.9-4c-1.9,0-3.5,1.1-4.8,2.3l-0.3-2h-2V265
			h2.5v-9.4c1.2-1.3,2.6-2.2,3.9-2.2c1.5,0,2.1,0.9,2.1,2.3v9.3H417.8z M402.7,265v-13.6h-2.5v9.4c-1.2,1.3-2.6,2.2-3.9,2.2
			c-1.5,0-2.1-0.9-2.1-2.3v-9.3h-2.5v9.9c0,2.5,1.3,4,3.9,4c1.9,0,3.5-1.1,4.8-2.3l0.3,2L402.7,265L402.7,265z M385.9,258.2
			c0,2.8-1.3,5-3.8,5c-2.4,0-3.7-2.2-3.7-5c0-2.8,1.2-5,3.7-5C384.6,253.3,385.9,255.4,385.9,258.2 M388.5,258.2
			c0-4.5-2.7-7.1-6.3-7.1c-3.6,0-6.2,2.6-6.2,7.1s2.6,7.1,6.2,7.1C385.8,265.3,388.5,262.7,388.5,258.2 M374.8,247.8v-2.5h-10.2V265
			h2.7v-8.7h6.3l-0.4-2.5h-5.9v-6L374.8,247.8L374.8,247.8z M352.1,256.6h-6.6c0.4-2.3,1.7-3.4,3.3-3.4
			C350.9,253.1,351.8,254.4,352.1,256.6 M354.7,257.9c0-3.8-1.8-6.8-5.8-6.8c-3.4,0-6,2.7-6,7c0,5,2.8,7.1,6.3,7.1
			c2.3,0,4-0.7,5.4-1.8l-0.4-2.3c-1.5,1.2-2.9,1.9-4.9,1.9c-2.4,0-3.9-1.5-4-4.6h9.2v-0.5H354.7z M341.5,247l-0.4-2.3
			c-0.3,0-0.6-0.1-1.1-0.1c-2.4,0-4.2,1-4.2,3.7v3h-2.1v2.1h2.1V265h2.5v-11.5h3l-0.3-2.1h-2.7v-2.7c0-1.3,0.7-1.7,1.9-1.7
			C340.7,246.9,341.3,247,341.5,247 M330.9,251.4h-2.5V265h2.5V251.4z M331.3,247.1c0-0.9-0.7-1.6-1.6-1.6s-1.6,0.7-1.6,1.6
			s0.7,1.6,1.6,1.6C330.5,248.7,331.3,248,331.3,247.1 M325.4,265l-0.4-2.5h-7.1v-17.2h-2.7V265H325.4z M311.8,265.1l-0.3-2.2
			c-0.3,0.1-0.7,0.1-1.2,0.1c-1.4,0-1.9-0.7-1.9-1.8v-7.6h3.3l-0.3-2.1h-2.9v-4.9L306,247v4.5h-2.1v2.1h2.1v8.1c0,2.7,1.6,3.6,4,3.6
			C310.7,265.2,311.3,265.1,311.8,265.1 M299.4,256.6h-6.6c0.4-2.3,1.7-3.4,3.3-3.4C298.2,253.1,299.1,254.4,299.4,256.6 M302,257.9
			c0-3.8-1.8-6.8-5.8-6.8c-3.4,0-6,2.7-6,7c0,5,2.8,7.1,6.3,7.1c2.3,0,4-0.7,5.4-1.8l-0.4-2.3c-1.5,1.2-2.9,1.9-4.9,1.9
			c-2.4,0-3.9-1.5-4-4.6h9.2v-0.5H302z M287.2,265l-1.5-19.7h-3.3l-6.1,16.1l-6.1-16.1h-3.3l-1.6,19.7h2.5l1.2-15.6l6.2,15.7h2
			l6.2-15.7l1.2,15.6H287.2z M256.4,251.4h-2.6l-3.6,10.6l-3.7-10.8l-2.5,0.4l5,13.5l-0.5,1.4c-0.4,1.1-1.1,1.6-2.2,1.6
			c-0.5,0-1-0.1-1.4-0.2l0.3,2.2c0.3,0.1,0.5,0.1,0.9,0.1c2.3,0,3.7-0.8,4.9-4L256.4,251.4z M239.8,257.9c0,3.5-1.5,5.1-4.1,5.1
			c-1.3,0-1.9-0.1-2.7-0.5v-7c1-1.3,2.3-2.2,3.7-2.2C238.5,253.4,239.8,255,239.8,257.9 M242.4,257.8c0-4.5-2.4-6.7-5.4-6.7
			c-1.9,0-3.2,0.9-4.1,1.9v-8.6l-2.5,0.4v19.5c1.8,0.5,3.2,0.9,5.3,0.9C239.6,265.2,242.4,262.8,242.4,257.8 M217.6,260.6
			c-1.1,1.5-2.3,2.4-3.8,2.4c-1.8,0-3.2-1.6-3.2-4.6c0-3.4,1.5-5.1,3.7-5.1c1.5,0,2.3,0.2,3.3,0.8V260.6z M220.1,265v-20.6l-2.5,0.4
			v7c-0.9-0.3-2.1-0.6-3.4-0.6c-3.3,0-6.2,2.4-6.2,7.4c0,4.6,2.4,6.7,5.4,6.7c2,0,3.4-1,4.4-2.3l0.3,2H220.1z M203,256.6h-6.6
			c0.4-2.3,1.7-3.4,3.3-3.4C201.7,253.1,202.7,254.4,203,256.6 M205.6,257.9c0-3.8-1.8-6.8-5.8-6.8c-3.4,0-6,2.7-6,7
			c0,5,2.8,7.1,6.3,7.1c2.3,0,4-0.7,5.4-1.8l-0.4-2.3c-1.5,1.2-2.9,1.9-4.9,1.9c-2.4,0-3.9-1.5-4-4.6h9.2v-0.5H205.6z M192.5,253.5
			l-0.4-2.4c-2.2,0.1-3.8,1.5-4.8,3l-0.4-2.8h-2V265h2.5v-8C188.3,255.2,190.2,253.7,192.5,253.5 M179.1,258.2c0,2.8-1.3,5-3.8,5
			c-2.4,0-3.7-2.2-3.7-5c0-2.8,1.2-5,3.7-5C177.8,253.3,179.1,255.4,179.1,258.2 M181.7,258.2c0-4.5-2.7-7.1-6.3-7.1
			c-3.6,0-6.2,2.6-6.2,7.1s2.6,7.1,6.2,7.1C179,265.3,181.7,262.7,181.7,258.2 M166.8,261.2c0-2.6-1.5-3.6-4.9-4.4
			c-2.1-0.5-2.8-1.1-2.8-2c0-1,0.8-1.6,2.3-1.6c1.4,0,2.9,0.5,4.1,1.2l0.4-2.4c-1.3-0.6-2.8-0.9-4.5-0.9c-3,0-4.8,1.6-4.8,3.8
			c0,2.4,1.3,3.4,4.5,4.2c2.5,0.6,3.2,1.1,3.2,2.3c0,1.1-1,1.8-2.8,1.8c-1.9,0-3.5-0.7-4.8-1.6l-0.4,2.4c1.2,0.7,3.2,1.3,5,1.3
			C164.9,265.3,166.8,263.7,166.8,261.2 M153.3,265v-9.9c0-2.5-1.4-4-3.9-4c-1.9,0-3.5,1.1-4.8,2.3l-0.3-2h-2V265h2.5v-9.4
			c1.2-1.3,2.6-2.2,3.9-2.2c1.5,0,2.1,0.9,2.1,2.3v9.3H153.3z M136.5,258.2c0,2.8-1.3,5-3.8,5c-2.4,0-3.7-2.2-3.7-5
			c0-2.8,1.2-5,3.7-5S136.5,255.4,136.5,258.2 M139,258.2c0-4.5-2.7-7.1-6.3-7.1s-6.2,2.6-6.2,7.1s2.6,7.1,6.2,7.1
			C136.4,265.3,139,262.7,139,258.2 M121.5,257.9c0,3.4-1.6,5.1-3.7,5.1c-1.5,0-2.3-0.2-3.3-0.7v-6.5c1.1-1.5,2.3-2.4,3.8-2.4
			C120.1,253.4,121.5,255,121.5,257.9 M124,257.8c0-4.5-2.4-6.7-5.4-6.7c-2,0-3.4,1.1-4.4,2.3l-0.3-2h-2v18.9l2.5-0.4v-5.4
			c0.9,0.3,2.1,0.6,3.4,0.6C121.2,265.2,124,262.8,124,257.8 M108.5,259.7c0-3-1.3-4.3-5.1-6c-3-1.4-3.7-2.1-3.7-3.6s1-2.7,3.2-2.7
			c1.6,0,3,0.6,4.1,1.5l0.4-2.7c-1.1-0.7-2.6-1.1-4.5-1.1c-3.6,0-6,2-6,5.2c0,2.8,1.4,4,5.1,5.7c3,1.3,3.8,2.1,3.8,3.9
			c0,1.9-1.5,3-3.5,3s-3.8-0.8-5.2-1.7l-0.4,2.7c1.5,0.8,3.4,1.3,5.5,1.3C106,265.2,108.5,263.1,108.5,259.7"/>
	</g>
</g>
</svg>
